<svg width="270" height="270" viewBox="0 0 270 270" fill="none" xmlns="http://www.w3.org/2000/svg">
<rect width="270" height="270" fill="#0a0f1c"/>
<path d="M135 90.6012C117.961 90.6012 99.6221 94.2218 99.6221 102.17V167.83C99.6221 175.778 117.961 179.399 135 179.399C152.039 179.399 170.378 175.778 170.378 167.83V102.181C170.378 102.176 170.378 102.174 170.378 102.17C170.378 94.2218 152.039 90.6012 135 90.6012ZM165.431 146.326C165.431 146.702 164.039 148.604 157.606 150.384C151.601 152.045 143.574 152.959 135 152.959C126.426 152.959 118.399 152.045 112.394 150.384C105.961 148.604 104.569 146.702 104.569 146.326V129.351C111.173 132.937 123.388 134.62 135 134.62C146.612 134.62 158.827 132.937 165.431 129.351V146.326ZM165.431 123.051C165.431 123.427 164.039 125.329 157.606 127.109C151.601 128.77 143.572 129.684 135 129.684C126.428 129.684 118.401 128.77 112.394 127.109C105.961 125.329 104.569 123.427 104.569 123.051V108.47C111.173 112.056 123.388 113.739 135 113.739C146.612 113.739 158.827 112.056 165.431 108.47V123.051ZM112.413 98.1168C118.43 96.4532 126.452 95.5349 135 95.5349C143.548 95.5349 151.57 96.4511 157.587 98.1168C164.022 99.8964 165.425 101.788 165.431 102.166V102.168V102.172C165.422 102.554 164.015 104.444 157.587 106.221C151.57 107.887 143.548 108.803 135 108.803C126.452 108.803 118.43 107.887 112.413 106.221C105.966 104.437 104.569 102.542 104.569 102.168C104.569 101.794 105.966 99.9007 112.413 98.1168ZM157.606 171.887C151.601 173.549 143.572 174.463 135 174.463C126.428 174.463 118.399 173.549 112.394 171.887C105.961 170.108 104.569 168.206 104.569 167.83V152.624C111.173 156.21 123.388 157.893 135 157.893C146.612 157.893 158.827 156.21 165.431 152.624V167.83C165.431 168.206 164.039 170.108 157.606 171.887ZM139.245 121.755C139.166 120.395 140.209 119.228 141.572 119.15C144.02 119.01 146.43 118.787 148.739 118.483C150.093 118.305 151.335 119.255 151.513 120.609C151.69 121.96 150.736 123.199 149.382 123.376C146.955 123.695 144.422 123.929 141.853 124.077C141.805 124.079 141.758 124.081 141.71 124.081C140.41 124.081 139.321 123.066 139.245 121.755ZM154.944 119.996C154.604 118.677 155.402 117.332 156.724 116.992C157.031 116.914 157.333 116.834 157.63 116.752C158.946 116.386 160.308 117.153 160.676 118.466C161.043 119.779 160.274 121.138 158.958 121.506C158.63 121.597 158.296 121.685 157.955 121.774C157.75 121.827 157.543 121.852 157.34 121.852C156.235 121.85 155.23 121.109 154.944 119.996ZM139.245 143.455C139.166 142.095 140.207 140.928 141.572 140.85C144.022 140.711 146.434 140.485 148.739 140.183C150.093 140.005 151.335 140.955 151.513 142.309C151.69 143.66 150.736 144.899 149.382 145.076C146.957 145.393 144.426 145.629 141.856 145.777C141.807 145.779 141.76 145.781 141.712 145.781C140.41 145.781 139.321 144.768 139.245 143.455ZM154.944 141.694C154.606 140.375 155.404 139.03 156.726 138.692C157.035 138.614 157.338 138.532 157.632 138.452C158.952 138.086 160.31 138.855 160.676 140.168C161.043 141.481 160.272 142.841 158.956 143.206C158.628 143.297 158.294 143.385 157.953 143.474C157.748 143.527 157.541 143.552 157.338 143.552C156.235 143.55 155.23 142.809 154.944 141.694ZM151.515 164.446C151.692 165.797 150.738 167.036 149.384 167.213C146.955 167.532 144.422 167.767 141.856 167.914C141.807 167.916 141.76 167.919 141.712 167.919C140.41 167.919 139.321 166.905 139.245 165.592C139.166 164.233 140.209 163.065 141.572 162.987C144.018 162.848 146.43 162.622 148.739 162.32C150.095 162.147 151.335 163.095 151.515 164.446ZM160.676 162.303C161.043 163.616 160.274 164.976 158.958 165.343C158.63 165.434 158.296 165.522 157.955 165.611C157.75 165.664 157.543 165.689 157.34 165.689C156.237 165.689 155.232 164.948 154.947 163.836C154.606 162.516 155.404 161.171 156.726 160.832C157.033 160.753 157.335 160.673 157.632 160.591C158.946 160.221 160.31 160.99 160.676 162.303ZM203.513 154.293V115.707C212.802 114.493 219.998 106.551 219.998 96.9578C219.998 86.5268 211.494 78.0422 201.039 78.0422C194.922 78.0422 189.476 80.9492 186.008 85.4501L152.511 66.1546C153.44 63.9231 153.956 61.4784 153.956 58.9156C153.958 48.4846 145.455 40 135 40C124.545 40 116.042 48.4846 116.042 58.9156C116.042 61.4784 116.558 63.9231 117.487 66.1546L83.9898 85.4501C80.5219 80.9513 75.0756 78.0422 68.9585 78.0422C58.5038 78.0422 50 86.5268 50 96.9578C50 106.551 57.1962 114.493 66.485 115.707V154.291C57.1962 155.505 50 163.447 50 173.04C50 183.471 58.5059 191.956 68.9585 191.956C75.0756 191.956 80.5198 189.049 83.9898 184.548L117.487 203.843C116.558 206.075 116.042 208.519 116.042 211.082C116.042 221.513 124.547 230 135 230C145.453 230 153.958 221.513 153.958 211.084C153.958 208.522 153.442 206.077 152.513 203.845L186.01 184.55C189.478 189.049 194.924 191.958 201.042 191.958C211.496 191.958 220 183.473 220 173.042C219.998 163.449 212.802 155.507 203.513 154.293ZM201.042 82.978C208.767 82.978 215.053 89.2501 215.053 96.9578C215.053 104.665 208.767 110.938 201.042 110.938C193.314 110.938 187.03 104.665 187.03 96.9578C187.03 89.2501 193.314 82.978 201.042 82.978ZM135 44.9358C142.725 44.9358 149.012 51.2079 149.012 58.9156C149.012 66.6232 142.727 72.8953 135 72.8953C127.273 72.8953 120.989 66.6232 120.989 58.9156C120.989 51.2079 127.275 44.9358 135 44.9358ZM54.947 96.9578C54.947 89.248 61.2333 82.978 68.9585 82.978C76.6836 82.978 82.97 89.2501 82.97 96.9578C82.97 104.665 76.6836 110.938 68.9585 110.938C61.2333 110.938 54.947 104.668 54.947 96.9578ZM68.9606 187.022C61.2333 187.022 54.9491 180.75 54.9491 173.042C54.9491 165.335 61.2354 159.062 68.9606 159.062C76.6858 159.062 82.9721 165.335 82.9721 173.042C82.9721 180.75 76.6858 187.022 68.9606 187.022ZM135 225.064C127.273 225.064 120.989 218.792 120.989 211.084C120.989 203.377 127.275 197.105 135 197.105C142.725 197.105 149.012 203.377 149.012 211.084C149.012 218.794 142.727 225.064 135 225.064ZM150.031 199.577C146.563 195.076 141.117 192.169 135 192.169C128.883 192.169 123.437 195.076 119.969 199.577L86.4718 180.281C87.4007 178.05 87.917 175.605 87.917 173.042C87.917 163.449 80.7208 155.507 71.432 154.293V115.707C80.7208 114.493 87.917 106.551 87.917 96.9578C87.917 94.3949 87.4007 91.9502 86.4718 89.7188L119.969 70.4232C123.439 74.9241 128.885 77.8311 135 77.8311C141.115 77.8311 146.561 74.9241 150.031 70.4232L183.528 89.7188C182.599 91.9502 182.083 94.3949 182.083 96.9578C182.083 106.551 189.279 114.493 198.568 115.707V154.291C189.279 155.505 182.083 163.447 182.083 173.04C182.083 175.603 182.599 178.048 183.528 180.279L150.031 199.577ZM201.042 187.022C193.314 187.022 187.03 180.75 187.03 173.042C187.03 165.335 193.316 159.062 201.042 159.062C208.767 159.062 215.053 165.335 215.053 173.042C215.053 180.75 208.767 187.022 201.042 187.022ZM67.3991 103.783C67.3567 103.785 67.3165 103.785 67.2763 103.785C66.5887 103.785 65.9306 103.5 65.4609 102.993L62.2257 99.5059C61.2968 98.5052 61.3582 96.9451 62.3611 96.0183C63.3619 95.0937 64.9277 95.1528 65.8566 96.1513L67.0859 97.475L71.9102 91.1037C72.7332 90.0164 74.2842 89.8011 75.3739 90.6223C76.4636 91.4436 76.6794 92.991 75.8563 94.0782L69.2505 102.801C68.8061 103.39 68.129 103.747 67.3991 103.783ZM128.265 61.4679C127.336 60.4672 127.398 58.9071 128.398 57.9803C129.401 57.0557 130.965 57.1127 131.894 58.1133L133.123 59.437L137.947 53.0657C138.771 51.9784 140.321 51.7631 141.411 52.5843C142.501 53.4056 142.717 54.953 141.894 56.0402L135.288 64.7633C134.846 65.346 134.168 65.7028 133.438 65.7408C133.396 65.7429 133.356 65.7429 133.316 65.7429C132.628 65.7429 131.97 65.4579 131.5 64.9512L128.265 61.4679ZM194.307 99.5101C193.378 98.5094 193.439 96.9493 194.442 96.0226C195.445 95.0979 197.009 95.157 197.937 96.1577L199.167 97.4813L203.991 91.11C204.814 90.0228 206.365 89.8074 207.455 90.6287C208.545 91.4499 208.76 92.9973 207.937 94.0846L201.331 102.808C200.889 103.39 200.212 103.747 199.482 103.785C199.44 103.787 199.4 103.787 199.359 103.787C198.672 103.787 198.014 103.502 197.544 102.996L194.307 99.5101ZM207.935 170.169L201.329 178.892C200.887 179.475 200.21 179.834 199.48 179.87C199.438 179.872 199.397 179.874 199.357 179.874C198.67 179.874 198.012 179.589 197.542 179.082L194.307 175.597C193.378 174.596 193.439 173.036 194.442 172.109C195.443 171.182 197.009 171.241 197.937 172.244L199.167 173.568L203.991 167.197C204.814 166.109 206.365 165.894 207.455 166.715C208.542 167.534 208.758 169.082 207.935 170.169ZM141.894 208.211L135.288 216.934C134.846 217.517 134.168 217.874 133.438 217.912C133.396 217.914 133.356 217.916 133.316 217.916C132.628 217.916 131.97 217.631 131.5 217.124L128.265 213.639C127.336 212.638 127.398 211.078 128.398 210.151C129.401 209.225 130.965 209.284 131.894 210.284L133.123 211.608L137.947 205.237C138.771 204.149 140.321 203.934 141.411 204.755C142.501 205.577 142.717 207.124 141.894 208.211ZM75.8542 170.169L69.2484 178.892C68.8061 179.475 68.129 179.832 67.3991 179.87C67.3567 179.872 67.3165 179.874 67.2763 179.874C66.5887 179.874 65.9306 179.589 65.4609 179.082L62.2257 175.597C61.2968 174.596 61.3582 173.036 62.359 172.109C63.3619 171.182 64.9256 171.244 65.8545 172.242L67.0838 173.566L71.908 167.194C72.7311 166.107 74.2821 165.892 75.3718 166.713C76.4615 167.534 76.6773 169.082 75.8542 170.169Z" fill="#00b4d8"/>
</svg>
