<svg width="1280" height="720" viewBox="0 0 1280 720" fill="none" xmlns="http://www.w3.org/2000/svg">
<g clip-path="url(#clip0_2330_29)">
<path d="M1280 0H0V720H1280V0Z" fill="#0A0F1C"/>
<path d="M775 225H505V495H775V225Z" fill="#0A0F1C"/>
<path d="M640 315.601C622.961 315.601 604.622 319.222 604.622 327.17V392.83C604.622 400.778 622.961 404.399 640 404.399C657.039 404.399 675.378 400.778 675.378 392.83V327.181C675.378 327.176 675.378 327.174 675.378 327.17C675.378 319.222 657.039 315.601 640 315.601ZM670.431 371.326C670.431 371.702 669.039 373.604 662.606 375.384C656.601 377.045 648.574 377.959 640 377.959C631.426 377.959 623.399 377.045 617.394 375.384C610.961 373.604 609.569 371.702 609.569 371.326V354.351C616.173 357.937 628.388 359.62 640 359.62C651.612 359.62 663.827 357.937 670.431 354.351V371.326ZM670.431 348.051C670.431 348.427 669.039 350.329 662.606 352.109C656.601 353.77 648.572 354.684 640 354.684C631.428 354.684 623.401 353.77 617.394 352.109C610.961 350.329 609.569 348.427 609.569 348.051V333.47C616.173 337.056 628.388 338.739 640 338.739C651.612 338.739 663.827 337.056 670.431 333.47V348.051ZM617.413 323.117C623.43 321.453 631.452 320.535 640 320.535C648.548 320.535 656.57 321.451 662.587 323.117C669.022 324.896 670.425 326.788 670.431 327.166V327.168V327.172C670.422 327.554 669.015 329.444 662.587 331.221C656.57 332.887 648.548 333.803 640 333.803C631.452 333.803 623.43 332.887 617.413 331.221C610.966 329.437 609.569 327.542 609.569 327.168C609.569 326.794 610.966 324.901 617.413 323.117ZM662.606 396.887C656.601 398.549 648.572 399.463 640 399.463C631.428 399.463 623.399 398.549 617.394 396.887C610.961 395.108 609.569 393.206 609.569 392.83V377.624C616.173 381.21 628.388 382.893 640 382.893C651.612 382.893 663.827 381.21 670.431 377.624V392.83C670.431 393.206 669.039 395.108 662.606 396.887ZM644.245 346.755C644.166 345.395 645.209 344.228 646.572 344.15C649.02 344.01 651.43 343.787 653.739 343.483C655.093 343.305 656.335 344.255 656.513 345.609C656.69 346.96 655.736 348.199 654.382 348.376C651.955 348.695 649.422 348.929 646.853 349.077C646.805 349.079 646.758 349.081 646.71 349.081C645.41 349.081 644.321 348.066 644.245 346.755ZM659.944 344.996C659.604 343.677 660.402 342.332 661.724 341.992C662.031 341.914 662.333 341.834 662.63 341.752C663.946 341.386 665.308 342.153 665.676 343.466C666.043 344.779 665.274 346.138 663.958 346.506C663.63 346.597 663.296 346.685 662.955 346.774C662.75 346.827 662.543 346.852 662.34 346.852C661.235 346.85 660.23 346.109 659.944 344.996ZM644.245 368.455C644.166 367.095 645.207 365.928 646.572 365.85C649.022 365.711 651.434 365.485 653.739 365.183C655.093 365.005 656.335 365.955 656.513 367.309C656.69 368.66 655.736 369.899 654.382 370.076C651.957 370.393 649.426 370.629 646.856 370.777C646.807 370.779 646.76 370.781 646.712 370.781C645.41 370.781 644.321 369.768 644.245 368.455ZM659.944 366.694C659.606 365.375 660.404 364.03 661.726 363.692C662.035 363.614 662.338 363.532 662.632 363.452C663.952 363.086 665.31 363.855 665.676 365.168C666.043 366.481 665.272 367.841 663.956 368.206C663.628 368.297 663.294 368.385 662.953 368.474C662.748 368.527 662.541 368.552 662.338 368.552C661.235 368.55 660.23 367.809 659.944 366.694ZM656.515 389.446C656.692 390.797 655.738 392.036 654.384 392.213C651.955 392.532 649.422 392.767 646.856 392.914C646.807 392.916 646.76 392.919 646.712 392.919C645.41 392.919 644.321 391.905 644.245 390.592C644.166 389.233 645.209 388.065 646.572 387.987C649.018 387.848 651.43 387.622 653.739 387.32C655.095 387.147 656.335 388.095 656.515 389.446ZM665.676 387.303C666.043 388.616 665.274 389.976 663.958 390.343C663.63 390.434 663.296 390.522 662.955 390.611C662.75 390.664 662.543 390.689 662.34 390.689C661.237 390.689 660.232 389.948 659.947 388.836C659.606 387.516 660.404 386.171 661.726 385.832C662.033 385.753 662.335 385.673 662.632 385.591C663.946 385.221 665.31 385.99 665.676 387.303ZM708.513 379.293V340.707C717.802 339.493 724.998 331.551 724.998 321.958C724.998 311.527 716.494 303.042 706.039 303.042C699.922 303.042 694.476 305.949 691.008 310.45L657.511 291.155C658.44 288.923 658.956 286.478 658.956 283.916C658.958 273.485 650.455 265 640 265C629.545 265 621.042 273.485 621.042 283.916C621.042 286.478 621.558 288.923 622.487 291.155L588.99 310.45C585.522 305.951 580.076 303.042 573.958 303.042C563.504 303.042 555 311.527 555 321.958C555 331.551 562.196 339.493 571.485 340.707V379.291C562.196 380.505 555 388.447 555 398.04C555 408.471 563.506 416.956 573.958 416.956C580.076 416.956 585.52 414.049 588.99 409.548L622.487 428.843C621.558 431.075 621.042 433.519 621.042 436.082C621.042 446.513 629.547 455 640 455C650.453 455 658.958 446.513 658.958 436.084C658.958 433.522 658.442 431.077 657.513 428.845L691.01 409.55C694.478 414.049 699.924 416.958 706.042 416.958C716.496 416.958 725 408.473 725 398.042C724.998 388.449 717.802 380.507 708.513 379.293ZM706.042 307.978C713.767 307.978 720.053 314.25 720.053 321.958C720.053 329.665 713.767 335.938 706.042 335.938C698.314 335.938 692.03 329.665 692.03 321.958C692.03 314.25 698.314 307.978 706.042 307.978ZM640 269.936C647.725 269.936 654.012 276.208 654.012 283.916C654.012 291.623 647.727 297.895 640 297.895C632.273 297.895 625.989 291.623 625.989 283.916C625.989 276.208 632.275 269.936 640 269.936ZM559.947 321.958C559.947 314.248 566.233 307.978 573.958 307.978C581.684 307.978 587.97 314.25 587.97 321.958C587.97 329.665 581.684 335.938 573.958 335.938C566.233 335.938 559.947 329.668 559.947 321.958ZM573.961 412.022C566.233 412.022 559.949 405.75 559.949 398.042C559.949 390.335 566.235 384.062 573.961 384.062C581.686 384.062 587.972 390.335 587.972 398.042C587.972 405.75 581.686 412.022 573.961 412.022ZM640 450.064C632.273 450.064 625.989 443.792 625.989 436.084C625.989 428.377 632.275 422.105 640 422.105C647.725 422.105 654.012 428.377 654.012 436.084C654.012 443.794 647.727 450.064 640 450.064ZM655.031 424.577C651.563 420.076 646.117 417.169 640 417.169C633.883 417.169 628.437 420.076 624.969 424.577L591.472 405.281C592.401 403.05 592.917 400.605 592.917 398.042C592.917 388.449 585.721 380.507 576.432 379.293V340.707C585.721 339.493 592.917 331.551 592.917 321.958C592.917 319.395 592.401 316.95 591.472 314.719L624.969 295.423C628.439 299.924 633.885 302.831 640 302.831C646.115 302.831 651.561 299.924 655.031 295.423L688.528 314.719C687.599 316.95 687.083 319.395 687.083 321.958C687.083 331.551 694.279 339.493 703.568 340.707V379.291C694.279 380.505 687.083 388.447 687.083 398.04C687.083 400.603 687.599 403.048 688.528 405.279L655.031 424.577ZM706.042 412.022C698.314 412.022 692.03 405.75 692.03 398.042C692.03 390.335 698.316 384.062 706.042 384.062C713.767 384.062 720.053 390.335 720.053 398.042C720.053 405.75 713.767 412.022 706.042 412.022ZM572.399 328.783C572.357 328.785 572.317 328.785 572.276 328.785C571.589 328.785 570.931 328.5 570.461 327.993L567.226 324.506C566.297 323.505 566.358 321.945 567.361 321.018C568.362 320.094 569.928 320.153 570.857 321.151L572.086 322.475L576.91 316.104C577.733 315.016 579.284 314.801 580.374 315.622C581.464 316.444 581.679 317.991 580.856 319.078L574.25 327.801C573.806 328.39 573.129 328.747 572.399 328.783ZM633.265 286.468C632.336 285.467 632.398 283.907 633.398 282.98C634.401 282.056 635.965 282.113 636.894 283.113L638.123 284.437L642.947 278.066C643.771 276.978 645.321 276.763 646.411 277.584C647.501 278.406 647.717 279.953 646.894 281.04L640.288 289.763C639.846 290.346 639.168 290.703 638.438 290.741C638.396 290.743 638.356 290.743 638.316 290.743C637.628 290.743 636.97 290.458 636.5 289.951L633.265 286.468ZM699.307 324.51C698.378 323.509 698.439 321.949 699.442 321.023C700.445 320.098 702.009 320.157 702.937 321.158L704.167 322.481L708.991 316.11C709.814 315.023 711.365 314.807 712.455 315.629C713.545 316.45 713.76 317.997 712.937 319.085L706.331 327.808C705.889 328.39 705.212 328.747 704.482 328.785C704.44 328.787 704.4 328.787 704.359 328.787C703.672 328.787 703.014 328.502 702.544 327.996L699.307 324.51ZM712.935 395.169L706.329 403.892C705.887 404.475 705.21 404.834 704.48 404.87C704.438 404.872 704.397 404.874 704.357 404.874C703.67 404.874 703.012 404.589 702.542 404.082L699.307 400.597C698.378 399.596 698.439 398.036 699.442 397.109C700.443 396.182 702.009 396.241 702.937 397.244L704.167 398.568L708.991 392.197C709.814 391.109 711.365 390.894 712.455 391.715C713.542 392.534 713.758 394.082 712.935 395.169ZM646.894 433.211L640.288 441.934C639.846 442.517 639.168 442.874 638.438 442.912C638.396 442.914 638.356 442.916 638.316 442.916C637.628 442.916 636.97 442.631 636.5 442.124L633.265 438.639C632.336 437.638 632.398 436.078 633.398 435.151C634.401 434.225 635.965 434.284 636.894 435.284L638.123 436.608L642.947 430.237C643.771 429.149 645.321 428.934 646.411 429.755C647.501 430.577 647.717 432.124 646.894 433.211ZM580.854 395.169L574.248 403.892C573.806 404.475 573.129 404.832 572.399 404.87C572.357 404.872 572.317 404.874 572.276 404.874C571.589 404.874 570.931 404.589 570.461 404.082L567.226 400.597C566.297 399.596 566.358 398.036 567.359 397.109C568.362 396.182 569.926 396.244 570.854 397.242L572.084 398.566L576.908 392.194C577.731 391.107 579.282 390.892 580.372 391.713C581.461 392.534 581.677 394.082 580.854 395.169Z" fill="#00B4D8"/>
</g>
<defs>
<clipPath id="clip0_2330_29">
<rect width="1280" height="720" fill="white"/>
</clipPath>
</defs>
</svg>
